<svg height='300px' width='300px'  fill="#000000" xmlns="http://www.w3.org/2000/svg" xmlns:xlink="http://www.w3.org/1999/xlink" xml:space="preserve" version="1.1" style="shape-rendering:geometricPrecision;text-rendering:geometricPrecision;image-rendering:optimizeQuality;" viewBox="0 0 1128.88 1128.88" x="0px" y="0px" fill-rule="evenodd" clip-rule="evenodd"><defs><style type="text/css">
   
    .fil0 {fill:#000000}
   
  </style></defs><g><g><path class="fil0" d="M658.88 564.46l220.03 -220.04c26.1,-26.06 26.1,-68.43 0,-94.48 -26.1,-26.11 -68.38,-26.11 -94.48,0l-220.04 220.03 -220.04 -220.03c-26.1,-26.11 -68.38,-26.11 -94.48,0 -26.1,26.06 -26.1,68.43 0,94.48l220.04 220.04 -220.04 220.03c-26.1,26.07 -26.1,68.44 0,94.49 13.06,13.06 30.16,19.56 47.27,19.56 17.11,0 34.21,-6.5 47.26,-19.56l220.04 -220.04 220.04 220.04c13.05,13.06 30.15,19.56 47.26,19.56 17.12,0 34.21,-6.5 47.27,-19.56 26.1,-26.07 26.1,-68.44 0,-94.49l-220.13 -220.03z"></path></g></g></svg>