<?xml version="1.0" encoding="iso-8859-1"?>
<!-- Generator: Adobe Illustrator 19.0.0, SVG Export Plug-In . SVG Version: 6.00 Build 0)  -->
<svg version="1.1" id="Capa_1" xmlns="http://www.w3.org/2000/svg" xmlns:xlink="http://www.w3.org/1999/xlink" x="0px" y="0px"
	 viewBox="0 0 58 58" style="enable-background:new 0 0 58 58;" xml:space="preserve">
<path style="fill:#fff;" d="M48,38h-4h-2V20h6c5.514,0,10-4.486,10-10S53.514,0,48,0S38,4.486,38,10v3v3H20v-1v-5
	c0-5.514-4.486-10-10-10S0,4.486,0,10s4.486,10,10,10h6v18h-2h-4C4.486,38,0,42.486,0,48s4.486,10,10,10s10-4.486,10-10v-6h18v6
	c0,5.514,4.486,10,10,10s10-4.486,10-10S53.514,38,48,38z M42,10c0-3.314,2.686-6,6-6s6,2.686,6,6s-2.686,6-6,6h-6V10z M16,48
	c0,3.314-2.686,6-6,6s-6-2.686-6-6s2.686-6,6-6h6V48z M10,16c-3.314,0-6-2.686-6-6s2.686-6,6-6s6,2.686,6,6v6H10z M20,38V20h18v18
	H20z M48,54c-3.314,0-6-2.686-6-6v-6h6c3.314,0,6,2.686,6,6S51.314,54,48,54z"/>
<g>
</g>
<g>
</g>
<g>
</g>
<g>
</g>
<g>
</g>
<g>
</g>
<g>
</g>
<g>
</g>
<g>
</g>
<g>
</g>
<g>
</g>
<g>
</g>
<g>
</g>
<g>
</g>
<g>
</g>
</svg>
